<?xml version="1.0" encoding="UTF-8" standalone="no"?>
<svg
   viewBox="762 0 436.7 650"
   style="enable-background:new 762 0 436.7 650"
   xml:space="preserve"
   version="1.1"
   id="svg4"
   sodipodi:docname="logo.svg"
   inkscape:version="1.4 (e7c3feb100, 2024-10-09)"
   xmlns:inkscape="http://www.inkscape.org/namespaces/inkscape"
   xmlns:sodipodi="http://sodipodi.sourceforge.net/DTD/sodipodi-0.dtd"
   xmlns="http://www.w3.org/2000/svg"
   xmlns:svg="http://www.w3.org/2000/svg"><defs
     id="defs4" /><sodipodi:namedview
     id="namedview4"
     pagecolor="#ffffff"
     bordercolor="#666666"
     borderopacity="1.0"
     inkscape:showpageshadow="2"
     inkscape:pageopacity="0.0"
     inkscape:pagecheckerboard="0"
     inkscape:deskcolor="#d1d1d1"
     inkscape:zoom="0.77384615"
     inkscape:cx="272.66402"
     inkscape:cy="271.37177"
     inkscape:window-width="2294"
     inkscape:window-height="1453"
     inkscape:window-x="386"
     inkscape:window-y="223"
     inkscape:window-maximized="0"
     inkscape:current-layer="svg4" /><linearGradient
     id="a"
     gradientUnits="userSpaceOnUse"
     x1="626.695"
     y1="707.496"
     x2="1641.942"
     y2="-578.481"
     gradientTransform="matrix(1 0 0 -1 0 650)"><stop
       offset="0"
       style="stop-color:#00c6ff"
       id="stop1" /><stop
       offset="1"
       style="stop-color:#0072ff"
       id="stop2" /></linearGradient><path
     d="M1147.1 526.4V150.1c0-17.9-8.9-34.6-23.8-44.7L984.7 11.9c-18.3-12.3-41.9-12.3-60.2 0l-138.7 93.6c-14.9 10-23.8 26.7-23.8 44.6v399.1c0 55.6 45.2 100.8 100.8 100.8 55.6 0 100.8-45.2 100.8-100.8V436.5c61.3-4.6 109.7-55.9 109.7-118.3V192.4c0-4.9-4-8.9-8.9-8.9v-1.2H1048c-6.6 0-11.9 5.3-11.9 11.9v24.5c0 6.6 5.3 11.9 11.9 11.9h7.4v87.6c0 55.6-45.2 100.8-100.8 100.8-55.6 0-100.8-45.2-100.8-100.8v-87.6h7.4c6.6 0 11.9-5.3 11.9-11.9v-24.5c0-6.6-5.3-11.9-11.9-11.9h-16.4v1.2c-4.9 0-8.9 4-8.9 8.9v125.8c0 62.4 48.5 113.7 109.7 118.3v112.8c0 45.7-37.2 82.9-82.9 82.9s-82.9-37.2-82.9-82.9V150.1c0-12 5.9-23.1 15.9-29.8l138.7-93.5c12.2-8.2 28-8.2 40.2 0l138.7 93.5c9.9 6.7 15.9 17.9 15.9 29.8v376.2c-29.7 4.1-52.7 29.7-52.7 60.5 0 33.7 27.4 61.1 61.1 61.1s61.1-27.4 61.1-61.1c0-30.5-22.4-55.8-51.6-60.4zm-9.5 103.6c-23.8 0-43.2-19.4-43.2-43.2s19.4-43.2 43.2-43.2c23.8 0 43.2 19.4 43.2 43.2.1 23.8-19.3 43.2-43.2 43.2z"
     style="fill:#ffffff"
     id="path2" /><linearGradient
     id="b"
     gradientUnits="userSpaceOnUse"
     x1="628.081"
     y1="708.59"
     x2="1643.331"
     y2="-577.391"
     gradientTransform="matrix(1 0 0 -1 0 650)"><stop
       offset="0"
       style="stop-color:#00c6ff"
       id="stop3" /><stop
       offset="1"
       style="stop-color:#0072ff"
       id="stop4" /></linearGradient><circle
     cx="1137.6"
     cy="586.8"
     r="25"
     style="fill:#ffffff"
     id="circle4" /></svg>
